<mxfile host="app.diagrams.net" modified="2023-10-20T06:40:30.440Z" agent="Mozilla/5.0 (Windows NT 10.0; Win64; x64) AppleWebKit/537.36 (KHTML, like Gecko) Chrome/116.0.0.0 Safari/537.36" etag="QPID6kx65qPOGYZVdbd8" version="22.0.5" type="github">
  <diagram name="Página-1" id="x8PaTrYAWbShvZnrZMcl">
    <mxGraphModel dx="659" dy="374" grid="1" gridSize="10" guides="1" tooltips="1" connect="1" arrows="1" fold="1" page="1" pageScale="1" pageWidth="1654" pageHeight="2336" math="0" shadow="0">
      <root>
        <mxCell id="0" />
        <mxCell id="1" parent="0" />
        <mxCell id="90Zt8sNeOAvOyjuPxWFG-2" value="Cobrando" style="rounded=0;whiteSpace=wrap;html=1;" vertex="1" parent="1">
          <mxGeometry x="530" y="730" width="100" height="50" as="geometry" />
        </mxCell>
        <mxCell id="90Zt8sNeOAvOyjuPxWFG-3" value="Esperando introducción de crédito" style="rounded=0;whiteSpace=wrap;html=1;" vertex="1" parent="1">
          <mxGeometry x="530" y="510" width="100" height="50" as="geometry" />
        </mxCell>
        <mxCell id="90Zt8sNeOAvOyjuPxWFG-4" value="Esperando elección de producto" style="rounded=0;whiteSpace=wrap;html=1;" vertex="1" parent="1">
          <mxGeometry x="530" y="620" width="100" height="50" as="geometry" />
        </mxCell>
        <mxCell id="90Zt8sNeOAvOyjuPxWFG-5" value="Dispensando" style="rounded=0;whiteSpace=wrap;html=1;" vertex="1" parent="1">
          <mxGeometry x="530" y="840" width="100" height="50" as="geometry" />
        </mxCell>
        <mxCell id="90Zt8sNeOAvOyjuPxWFG-7" value="" style="endArrow=classic;html=1;rounded=0;exitX=0.75;exitY=1;exitDx=0;exitDy=0;entryX=0.75;entryY=0;entryDx=0;entryDy=0;" edge="1" parent="1">
          <mxGeometry width="50" height="50" relative="1" as="geometry">
            <mxPoint x="600" y="560" as="sourcePoint" />
            <mxPoint x="600" y="620" as="targetPoint" />
          </mxGeometry>
        </mxCell>
        <mxCell id="90Zt8sNeOAvOyjuPxWFG-8" value="" style="endArrow=classic;html=1;rounded=0;exitX=0.75;exitY=1;exitDx=0;exitDy=0;entryX=0.75;entryY=0;entryDx=0;entryDy=0;" edge="1" parent="1">
          <mxGeometry width="50" height="50" relative="1" as="geometry">
            <mxPoint x="600" y="670" as="sourcePoint" />
            <mxPoint x="600" y="730" as="targetPoint" />
          </mxGeometry>
        </mxCell>
        <mxCell id="90Zt8sNeOAvOyjuPxWFG-9" value="" style="endArrow=classic;html=1;rounded=0;exitX=0.75;exitY=1;exitDx=0;exitDy=0;entryX=0.75;entryY=0;entryDx=0;entryDy=0;" edge="1" parent="1">
          <mxGeometry width="50" height="50" relative="1" as="geometry">
            <mxPoint x="579.72" y="780" as="sourcePoint" />
            <mxPoint x="579.72" y="840" as="targetPoint" />
          </mxGeometry>
        </mxCell>
        <mxCell id="90Zt8sNeOAvOyjuPxWFG-11" value="" style="endArrow=classic;html=1;rounded=0;exitX=0.25;exitY=0;exitDx=0;exitDy=0;entryX=0.25;entryY=1;entryDx=0;entryDy=0;" edge="1" parent="1">
          <mxGeometry width="50" height="50" relative="1" as="geometry">
            <mxPoint x="560" y="620" as="sourcePoint" />
            <mxPoint x="560" y="560" as="targetPoint" />
          </mxGeometry>
        </mxCell>
        <mxCell id="90Zt8sNeOAvOyjuPxWFG-12" value="" style="endArrow=classic;html=1;rounded=0;exitX=0.25;exitY=0;exitDx=0;exitDy=0;entryX=0.25;entryY=1;entryDx=0;entryDy=0;" edge="1" parent="1">
          <mxGeometry width="50" height="50" relative="1" as="geometry">
            <mxPoint x="560" y="730" as="sourcePoint" />
            <mxPoint x="560" y="670" as="targetPoint" />
          </mxGeometry>
        </mxCell>
        <mxCell id="90Zt8sNeOAvOyjuPxWFG-14" value="Tarda mucho o no introduce crédito" style="text;html=1;strokeColor=none;fillColor=none;align=center;verticalAlign=middle;whiteSpace=wrap;rounded=0;" vertex="1" parent="1">
          <mxGeometry x="690" y="515" width="100" height="40" as="geometry" />
        </mxCell>
        <mxCell id="90Zt8sNeOAvOyjuPxWFG-16" value="La persona introduce crédito" style="text;html=1;strokeColor=none;fillColor=none;align=center;verticalAlign=middle;whiteSpace=wrap;rounded=0;" vertex="1" parent="1">
          <mxGeometry x="620" y="570" width="100" height="40" as="geometry" />
        </mxCell>
        <mxCell id="90Zt8sNeOAvOyjuPxWFG-17" value="La persona pide devolución" style="text;html=1;strokeColor=none;fillColor=none;align=center;verticalAlign=middle;whiteSpace=wrap;rounded=0;" vertex="1" parent="1">
          <mxGeometry x="440" y="570" width="100" height="40" as="geometry" />
        </mxCell>
        <mxCell id="90Zt8sNeOAvOyjuPxWFG-18" value="Se elige producto" style="text;html=1;strokeColor=none;fillColor=none;align=center;verticalAlign=middle;whiteSpace=wrap;rounded=0;" vertex="1" parent="1">
          <mxGeometry x="620" y="680" width="100" height="40" as="geometry" />
        </mxCell>
        <mxCell id="90Zt8sNeOAvOyjuPxWFG-19" value="Se elige un producto erróneo" style="text;html=1;strokeColor=none;fillColor=none;align=center;verticalAlign=middle;whiteSpace=wrap;rounded=0;" vertex="1" parent="1">
          <mxGeometry x="440" y="680" width="100" height="40" as="geometry" />
        </mxCell>
        <mxCell id="90Zt8sNeOAvOyjuPxWFG-20" value="El dinero pasa por el sensor y acaba en la hucha" style="text;html=1;strokeColor=none;fillColor=none;align=center;verticalAlign=middle;whiteSpace=wrap;rounded=0;" vertex="1" parent="1">
          <mxGeometry x="600" y="790" width="110" height="40" as="geometry" />
        </mxCell>
        <mxCell id="90Zt8sNeOAvOyjuPxWFG-21" style="edgeStyle=orthogonalEdgeStyle;rounded=0;orthogonalLoop=1;jettySize=auto;html=1;entryX=1;entryY=0.75;entryDx=0;entryDy=0;exitX=1;exitY=0.25;exitDx=0;exitDy=0;" edge="1" parent="1" source="90Zt8sNeOAvOyjuPxWFG-3" target="90Zt8sNeOAvOyjuPxWFG-3">
          <mxGeometry relative="1" as="geometry">
            <Array as="points">
              <mxPoint x="680" y="523" />
              <mxPoint x="680" y="548" />
            </Array>
          </mxGeometry>
        </mxCell>
        <mxCell id="90Zt8sNeOAvOyjuPxWFG-22" style="edgeStyle=orthogonalEdgeStyle;rounded=0;orthogonalLoop=1;jettySize=auto;html=1;entryX=1;entryY=0.75;entryDx=0;entryDy=0;exitX=1;exitY=0.25;exitDx=0;exitDy=0;" edge="1" parent="1">
          <mxGeometry relative="1" as="geometry">
            <mxPoint x="630" y="852.5" as="sourcePoint" />
            <mxPoint x="630" y="877.5" as="targetPoint" />
            <Array as="points">
              <mxPoint x="680" y="852.5" />
              <mxPoint x="680" y="877.5" />
            </Array>
          </mxGeometry>
        </mxCell>
        <mxCell id="90Zt8sNeOAvOyjuPxWFG-23" value="Algo va mal al dispensar el producto" style="text;html=1;strokeColor=none;fillColor=none;align=center;verticalAlign=middle;whiteSpace=wrap;rounded=0;" vertex="1" parent="1">
          <mxGeometry x="700" y="845" width="100" height="40" as="geometry" />
        </mxCell>
      </root>
    </mxGraphModel>
  </diagram>
</mxfile>
